# xmcd
#
# Track frame offsets: 
#        151
#        18073
#        36558
#        58500
#        72953
#        89825
#        100343
#        130199
#        148904
#        167579
#        186680
#        201626
#        216858
#        229445
#        250158
#        269579
#        282982
#        305492
#
# Disc length: 4298 seconds
#
# Revision: 0
# Processed by: cddbd v1.5.2PL0 Copyright (c) Steve Scherf et al.
# Submitted via: ExactAudioCopy v0.99pb5
#
DISCID=2810c812
DTITLE=Sk³adanka - The World Of Blues
DYEAR=2001
DGENRE=Blues
TTITLE0=Debbie Davis - Picture This
TTITLE1=The Shadows - Every Woman I Know Is Crazy
TTITLE2=Coco Montoya - Just Let Go
TTITLE3=Pat Boyack and The Prowlers - Louisiana Love Shack
TTITLE4=Dave Hole - Keep Your Motor Running
TTITLE5=Marcia Ball and Lou Ann Barton - Good Rocking Daddy
TTITLE6=Ronnie Earl and The Broadcasters - Song For The Sun
TTITLE7=Tommy Castro - Suitcase Full Of Blues
TTITLE8=Jimmy Thackery and The Drivers - Drive To Survive
TTITLE9=Johnny Winter - It's My Life, Baby
TTITLE10=The Cryin' Fox - Boom, Boom
TTITLE11=Willie Dixon and Memphis Slim - That's My Baby
TTITLE12=Howlin' Wolf - My Mind Is Ramblin'
TTITLE13=Lightin' Hopkins - Automobile Blues
TTITLE14=Gary Browne - Still Got The Blues
TTITLE15=King Curtis - Trouble In Mind
TTITLE16=B.B. King - Everyday I Have The Blues
TTITLE17=Otis Spann - The Blues Never Die
EXTD=
EXTT0=
EXTT1=
EXTT2=
EXTT3=
EXTT4=
EXTT5=
EXTT6=
EXTT7=
EXTT8=
EXTT9=
EXTT10=
EXTT11=
EXTT12=
EXTT13=
EXTT14=
EXTT15=
EXTT16=
EXTT17=
PLAYORDER=
